<mxfile host="app.diagrams.net" agent="Mozilla/5.0 (Macintosh; Intel Mac OS X 10_15_7) AppleWebKit/605.1.15 (KHTML, like Gecko) Version/16.5 Safari/605.1.15" version="24.7.7">
  <diagram name="Page-1" id="RLxrQrW1n9EhQgBCgmO4">
    <mxGraphModel dx="2167" dy="1972" grid="1" gridSize="10" guides="1" tooltips="1" connect="1" arrows="1" fold="1" page="1" pageScale="1" pageWidth="827" pageHeight="1169" math="0" shadow="0">
      <root>
        <mxCell id="0" />
        <mxCell id="1" parent="0" />
        <mxCell id="KXRoxeVGN757AeJ8SQAW-32" value="" style="rounded=0;whiteSpace=wrap;html=1;direction=south;fillColor=none;strokeColor=#66FF66;" vertex="1" parent="1">
          <mxGeometry x="610" y="-70" width="130" height="510" as="geometry" />
        </mxCell>
        <mxCell id="KXRoxeVGN757AeJ8SQAW-1" value="" style="sketch=0;points=[[0,0,0],[0.25,0,0],[0.5,0,0],[0.75,0,0],[1,0,0],[0,1,0],[0.25,1,0],[0.5,1,0],[0.75,1,0],[1,1,0],[0,0.25,0],[0,0.5,0],[0,0.75,0],[1,0.25,0],[1,0.5,0],[1,0.75,0]];outlineConnect=0;fontColor=#232F3E;fillColor=#8C4FFF;strokeColor=#ffffff;dashed=0;verticalLabelPosition=bottom;verticalAlign=top;align=center;html=1;fontSize=12;fontStyle=0;aspect=fixed;shape=mxgraph.aws4.resourceIcon;resIcon=mxgraph.aws4.cloudfront;" vertex="1" parent="1">
          <mxGeometry x="90" y="150" width="78" height="78" as="geometry" />
        </mxCell>
        <mxCell id="KXRoxeVGN757AeJ8SQAW-23" style="edgeStyle=orthogonalEdgeStyle;rounded=0;orthogonalLoop=1;jettySize=auto;html=1;" edge="1" parent="1" source="KXRoxeVGN757AeJ8SQAW-2" target="KXRoxeVGN757AeJ8SQAW-17">
          <mxGeometry relative="1" as="geometry" />
        </mxCell>
        <mxCell id="KXRoxeVGN757AeJ8SQAW-30" value="PATCH poketeam" style="edgeLabel;html=1;align=center;verticalAlign=middle;resizable=0;points=[];" vertex="1" connectable="0" parent="KXRoxeVGN757AeJ8SQAW-23">
          <mxGeometry x="0.5968" y="-1" relative="1" as="geometry">
            <mxPoint y="1" as="offset" />
          </mxGeometry>
        </mxCell>
        <mxCell id="KXRoxeVGN757AeJ8SQAW-24" style="edgeStyle=orthogonalEdgeStyle;rounded=0;orthogonalLoop=1;jettySize=auto;html=1;" edge="1" parent="1" source="KXRoxeVGN757AeJ8SQAW-2" target="KXRoxeVGN757AeJ8SQAW-15">
          <mxGeometry relative="1" as="geometry" />
        </mxCell>
        <mxCell id="KXRoxeVGN757AeJ8SQAW-43" value="GET swteam" style="edgeLabel;html=1;align=center;verticalAlign=middle;resizable=0;points=[];" vertex="1" connectable="0" parent="KXRoxeVGN757AeJ8SQAW-24">
          <mxGeometry x="0.5162" y="1" relative="1" as="geometry">
            <mxPoint y="1" as="offset" />
          </mxGeometry>
        </mxCell>
        <mxCell id="KXRoxeVGN757AeJ8SQAW-49" style="edgeStyle=orthogonalEdgeStyle;rounded=0;orthogonalLoop=1;jettySize=auto;html=1;" edge="1" parent="1" source="KXRoxeVGN757AeJ8SQAW-2" target="KXRoxeVGN757AeJ8SQAW-9">
          <mxGeometry relative="1" as="geometry" />
        </mxCell>
        <mxCell id="KXRoxeVGN757AeJ8SQAW-2" value="" style="sketch=0;points=[[0,0,0],[0.25,0,0],[0.5,0,0],[0.75,0,0],[1,0,0],[0,1,0],[0.25,1,0],[0.5,1,0],[0.75,1,0],[1,1,0],[0,0.25,0],[0,0.5,0],[0,0.75,0],[1,0.25,0],[1,0.5,0],[1,0.75,0]];outlineConnect=0;fontColor=#232F3E;fillColor=#E7157B;strokeColor=#ffffff;dashed=0;verticalLabelPosition=bottom;verticalAlign=top;align=center;html=1;fontSize=12;fontStyle=0;aspect=fixed;shape=mxgraph.aws4.resourceIcon;resIcon=mxgraph.aws4.api_gateway;" vertex="1" parent="1">
          <mxGeometry x="300" y="150" width="78" height="78" as="geometry" />
        </mxCell>
        <mxCell id="KXRoxeVGN757AeJ8SQAW-3" value="" style="sketch=0;points=[[0,0,0],[0.25,0,0],[0.5,0,0],[0.75,0,0],[1,0,0],[0,1,0],[0.25,1,0],[0.5,1,0],[0.75,1,0],[1,1,0],[0,0.25,0],[0,0.5,0],[0,0.75,0],[1,0.25,0],[1,0.5,0],[1,0.75,0]];outlineConnect=0;fontColor=#232F3E;fillColor=#7AA116;strokeColor=#ffffff;dashed=0;verticalLabelPosition=bottom;verticalAlign=top;align=center;html=1;fontSize=12;fontStyle=0;aspect=fixed;shape=mxgraph.aws4.resourceIcon;resIcon=mxgraph.aws4.s3;" vertex="1" parent="1">
          <mxGeometry x="90" y="290" width="78" height="78" as="geometry" />
        </mxCell>
        <mxCell id="KXRoxeVGN757AeJ8SQAW-4" value="" style="outlineConnect=0;dashed=0;verticalLabelPosition=bottom;verticalAlign=top;align=center;html=1;shape=mxgraph.aws3.lambda_function;fillColor=#F58534;gradientColor=none;" vertex="1" parent="1">
          <mxGeometry x="640" y="18.46" width="69" height="72" as="geometry" />
        </mxCell>
        <mxCell id="KXRoxeVGN757AeJ8SQAW-6" value="TEAM DATA" style="sketch=0;points=[[0,0,0],[0.25,0,0],[0.5,0,0],[0.75,0,0],[1,0,0],[0,1,0],[0.25,1,0],[0.5,1,0],[0.75,1,0],[1,1,0],[0,0.25,0],[0,0.5,0],[0,0.75,0],[1,0.25,0],[1,0.5,0],[1,0.75,0]];outlineConnect=0;fontColor=#232F3E;fillColor=#C925D1;strokeColor=#ffffff;dashed=0;verticalLabelPosition=bottom;verticalAlign=top;align=center;html=1;fontSize=12;fontStyle=0;aspect=fixed;shape=mxgraph.aws4.resourceIcon;resIcon=mxgraph.aws4.dynamodb;" vertex="1" parent="1">
          <mxGeometry x="840" y="150" width="78" height="78" as="geometry" />
        </mxCell>
        <mxCell id="KXRoxeVGN757AeJ8SQAW-7" value="STAR WARS API" style="shape=image;html=1;verticalAlign=top;verticalLabelPosition=bottom;labelBackgroundColor=#ffffff;imageAspect=0;aspect=fixed;image=https://cdn0.iconfinder.com/data/icons/super-batman/24/3151564_-_droid_r2d2_robot_star_wars-128.png" vertex="1" parent="1">
          <mxGeometry x="580" y="514" width="90" height="90" as="geometry" />
        </mxCell>
        <mxCell id="KXRoxeVGN757AeJ8SQAW-8" value="POKEMON API" style="shape=image;html=1;verticalAlign=top;verticalLabelPosition=bottom;labelBackgroundColor=#ffffff;imageAspect=0;aspect=fixed;image=https://cdn0.iconfinder.com/data/icons/pokemon-go-vol-2/135/_pikachu-128.png" vertex="1" parent="1">
          <mxGeometry x="709" y="510.00000000000006" width="98" height="98" as="geometry" />
        </mxCell>
        <mxCell id="KXRoxeVGN757AeJ8SQAW-48" style="edgeStyle=orthogonalEdgeStyle;rounded=0;orthogonalLoop=1;jettySize=auto;html=1;" edge="1" parent="1" source="KXRoxeVGN757AeJ8SQAW-9" target="KXRoxeVGN757AeJ8SQAW-47">
          <mxGeometry relative="1" as="geometry" />
        </mxCell>
        <mxCell id="KXRoxeVGN757AeJ8SQAW-9" value="" style="outlineConnect=0;dashed=0;verticalLabelPosition=bottom;verticalAlign=top;align=center;html=1;shape=mxgraph.aws3.cloudwatch;fillColor=#759C3E;gradientColor=none;" vertex="1" parent="1">
          <mxGeometry x="297.75" y="-80.53999999999999" width="82.5" height="93" as="geometry" />
        </mxCell>
        <mxCell id="KXRoxeVGN757AeJ8SQAW-11" value="" style="sketch=0;points=[[0,0,0],[0.25,0,0],[0.5,0,0],[0.75,0,0],[1,0,0],[0,1,0],[0.25,1,0],[0.5,1,0],[0.75,1,0],[1,1,0],[0,0.25,0],[0,0.5,0],[0,0.75,0],[1,0.25,0],[1,0.5,0],[1,0.75,0]];outlineConnect=0;fontColor=#232F3E;fillColor=#DD344C;strokeColor=#ffffff;dashed=0;verticalLabelPosition=bottom;verticalAlign=top;align=center;html=1;fontSize=12;fontStyle=0;aspect=fixed;shape=mxgraph.aws4.resourceIcon;resIcon=mxgraph.aws4.waf;" vertex="1" parent="1">
          <mxGeometry x="60" y="110" width="52" height="52" as="geometry" />
        </mxCell>
        <mxCell id="KXRoxeVGN757AeJ8SQAW-39" style="edgeStyle=orthogonalEdgeStyle;rounded=0;orthogonalLoop=1;jettySize=auto;html=1;" edge="1" parent="1" source="KXRoxeVGN757AeJ8SQAW-15" target="KXRoxeVGN757AeJ8SQAW-6">
          <mxGeometry relative="1" as="geometry" />
        </mxCell>
        <mxCell id="KXRoxeVGN757AeJ8SQAW-15" value="" style="outlineConnect=0;dashed=0;verticalLabelPosition=bottom;verticalAlign=top;align=center;html=1;shape=mxgraph.aws3.lambda_function;fillColor=#F58534;gradientColor=none;" vertex="1" parent="1">
          <mxGeometry x="640" y="184.46" width="69" height="72" as="geometry" />
        </mxCell>
        <mxCell id="KXRoxeVGN757AeJ8SQAW-16" value="" style="outlineConnect=0;dashed=0;verticalLabelPosition=bottom;verticalAlign=top;align=center;html=1;shape=mxgraph.aws3.lambda_function;fillColor=#F58534;gradientColor=none;" vertex="1" parent="1">
          <mxGeometry x="640" y="-59.54" width="69" height="72" as="geometry" />
        </mxCell>
        <mxCell id="KXRoxeVGN757AeJ8SQAW-38" style="edgeStyle=orthogonalEdgeStyle;rounded=0;orthogonalLoop=1;jettySize=auto;html=1;" edge="1" parent="1" source="KXRoxeVGN757AeJ8SQAW-17" target="KXRoxeVGN757AeJ8SQAW-6">
          <mxGeometry relative="1" as="geometry" />
        </mxCell>
        <mxCell id="KXRoxeVGN757AeJ8SQAW-17" value="" style="outlineConnect=0;dashed=0;verticalLabelPosition=bottom;verticalAlign=top;align=center;html=1;shape=mxgraph.aws3.lambda_function;fillColor=#F58534;gradientColor=none;" vertex="1" parent="1">
          <mxGeometry x="640" y="102.46" width="69" height="72" as="geometry" />
        </mxCell>
        <mxCell id="KXRoxeVGN757AeJ8SQAW-18" value="" style="outlineConnect=0;dashed=0;verticalLabelPosition=bottom;verticalAlign=top;align=center;html=1;shape=mxgraph.aws3.lambda_function;fillColor=#F58534;gradientColor=none;" vertex="1" parent="1">
          <mxGeometry x="640" y="262.46" width="69" height="72" as="geometry" />
        </mxCell>
        <mxCell id="KXRoxeVGN757AeJ8SQAW-19" value="" style="outlineConnect=0;dashed=0;verticalLabelPosition=bottom;verticalAlign=top;align=center;html=1;shape=mxgraph.aws3.lambda_function;fillColor=#F58534;gradientColor=none;" vertex="1" parent="1">
          <mxGeometry x="640" y="341.46" width="69" height="72" as="geometry" />
        </mxCell>
        <mxCell id="KXRoxeVGN757AeJ8SQAW-21" style="edgeStyle=orthogonalEdgeStyle;rounded=0;orthogonalLoop=1;jettySize=auto;html=1;exitX=1;exitY=0.5;exitDx=0;exitDy=0;exitPerimeter=0;entryX=0;entryY=0.5;entryDx=0;entryDy=0;entryPerimeter=0;" edge="1" parent="1" source="KXRoxeVGN757AeJ8SQAW-2" target="KXRoxeVGN757AeJ8SQAW-16">
          <mxGeometry relative="1" as="geometry" />
        </mxCell>
        <mxCell id="KXRoxeVGN757AeJ8SQAW-27" value="GET poketeam" style="edgeLabel;html=1;align=center;verticalAlign=middle;resizable=0;points=[];" vertex="1" connectable="0" parent="KXRoxeVGN757AeJ8SQAW-21">
          <mxGeometry x="0.6923" relative="1" as="geometry">
            <mxPoint x="1" as="offset" />
          </mxGeometry>
        </mxCell>
        <mxCell id="KXRoxeVGN757AeJ8SQAW-22" style="edgeStyle=orthogonalEdgeStyle;rounded=0;orthogonalLoop=1;jettySize=auto;html=1;entryX=0;entryY=0.5;entryDx=0;entryDy=0;entryPerimeter=0;" edge="1" parent="1" source="KXRoxeVGN757AeJ8SQAW-2" target="KXRoxeVGN757AeJ8SQAW-4">
          <mxGeometry relative="1" as="geometry" />
        </mxCell>
        <mxCell id="KXRoxeVGN757AeJ8SQAW-28" value="POST poketeam" style="edgeLabel;html=1;align=center;verticalAlign=middle;resizable=0;points=[];" vertex="1" connectable="0" parent="KXRoxeVGN757AeJ8SQAW-22">
          <mxGeometry x="0.6166" y="-4" relative="1" as="geometry">
            <mxPoint y="-4" as="offset" />
          </mxGeometry>
        </mxCell>
        <mxCell id="KXRoxeVGN757AeJ8SQAW-25" style="edgeStyle=orthogonalEdgeStyle;rounded=0;orthogonalLoop=1;jettySize=auto;html=1;entryX=0;entryY=0.5;entryDx=0;entryDy=0;entryPerimeter=0;" edge="1" parent="1" source="KXRoxeVGN757AeJ8SQAW-2" target="KXRoxeVGN757AeJ8SQAW-18">
          <mxGeometry relative="1" as="geometry" />
        </mxCell>
        <mxCell id="KXRoxeVGN757AeJ8SQAW-44" value="POST swteam" style="edgeLabel;html=1;align=center;verticalAlign=middle;resizable=0;points=[];" vertex="1" connectable="0" parent="KXRoxeVGN757AeJ8SQAW-25">
          <mxGeometry x="0.6178" y="2" relative="1" as="geometry">
            <mxPoint as="offset" />
          </mxGeometry>
        </mxCell>
        <mxCell id="KXRoxeVGN757AeJ8SQAW-26" style="edgeStyle=orthogonalEdgeStyle;rounded=0;orthogonalLoop=1;jettySize=auto;html=1;entryX=0;entryY=0.5;entryDx=0;entryDy=0;entryPerimeter=0;" edge="1" parent="1" source="KXRoxeVGN757AeJ8SQAW-2" target="KXRoxeVGN757AeJ8SQAW-19">
          <mxGeometry relative="1" as="geometry" />
        </mxCell>
        <mxCell id="KXRoxeVGN757AeJ8SQAW-45" value="PATCH poketeam" style="edgeLabel;html=1;align=center;verticalAlign=middle;resizable=0;points=[];" vertex="1" connectable="0" parent="KXRoxeVGN757AeJ8SQAW-26">
          <mxGeometry x="0.6138" y="-1" relative="1" as="geometry">
            <mxPoint x="17" y="-1" as="offset" />
          </mxGeometry>
        </mxCell>
        <mxCell id="KXRoxeVGN757AeJ8SQAW-31" style="edgeStyle=orthogonalEdgeStyle;rounded=0;orthogonalLoop=1;jettySize=auto;html=1;exitX=1;exitY=0.5;exitDx=0;exitDy=0;exitPerimeter=0;entryX=0;entryY=0.5;entryDx=0;entryDy=0;entryPerimeter=0;" edge="1" parent="1" source="KXRoxeVGN757AeJ8SQAW-16" target="KXRoxeVGN757AeJ8SQAW-6">
          <mxGeometry relative="1" as="geometry" />
        </mxCell>
        <mxCell id="KXRoxeVGN757AeJ8SQAW-33" style="edgeStyle=orthogonalEdgeStyle;rounded=0;orthogonalLoop=1;jettySize=auto;html=1;entryX=0.5;entryY=0;entryDx=0;entryDy=0;" edge="1" parent="1" source="KXRoxeVGN757AeJ8SQAW-32" target="KXRoxeVGN757AeJ8SQAW-7">
          <mxGeometry relative="1" as="geometry" />
        </mxCell>
        <mxCell id="KXRoxeVGN757AeJ8SQAW-34" style="edgeStyle=orthogonalEdgeStyle;rounded=0;orthogonalLoop=1;jettySize=auto;html=1;" edge="1" parent="1" source="KXRoxeVGN757AeJ8SQAW-32" target="KXRoxeVGN757AeJ8SQAW-8">
          <mxGeometry relative="1" as="geometry" />
        </mxCell>
        <mxCell id="KXRoxeVGN757AeJ8SQAW-37" style="edgeStyle=orthogonalEdgeStyle;rounded=0;orthogonalLoop=1;jettySize=auto;html=1;entryX=0;entryY=0.5;entryDx=0;entryDy=0;entryPerimeter=0;" edge="1" parent="1" source="KXRoxeVGN757AeJ8SQAW-4" target="KXRoxeVGN757AeJ8SQAW-6">
          <mxGeometry relative="1" as="geometry" />
        </mxCell>
        <mxCell id="KXRoxeVGN757AeJ8SQAW-40" style="edgeStyle=orthogonalEdgeStyle;rounded=0;orthogonalLoop=1;jettySize=auto;html=1;entryX=0;entryY=0.5;entryDx=0;entryDy=0;entryPerimeter=0;" edge="1" parent="1" source="KXRoxeVGN757AeJ8SQAW-18" target="KXRoxeVGN757AeJ8SQAW-6">
          <mxGeometry relative="1" as="geometry" />
        </mxCell>
        <mxCell id="KXRoxeVGN757AeJ8SQAW-42" style="edgeStyle=orthogonalEdgeStyle;rounded=0;orthogonalLoop=1;jettySize=auto;html=1;entryX=0;entryY=0.5;entryDx=0;entryDy=0;entryPerimeter=0;" edge="1" parent="1" source="KXRoxeVGN757AeJ8SQAW-19" target="KXRoxeVGN757AeJ8SQAW-6">
          <mxGeometry relative="1" as="geometry" />
        </mxCell>
        <mxCell id="KXRoxeVGN757AeJ8SQAW-47" value="" style="shape=image;html=1;verticalAlign=top;verticalLabelPosition=bottom;labelBackgroundColor=#ffffff;imageAspect=0;aspect=fixed;image=https://cdn0.iconfinder.com/data/icons/logos-microsoft-office-365/128/Microsoft_Office-10-128.png" vertex="1" parent="1">
          <mxGeometry x="160" y="-78.04" width="88" height="88" as="geometry" />
        </mxCell>
        <mxCell id="KXRoxeVGN757AeJ8SQAW-51" style="edgeStyle=orthogonalEdgeStyle;rounded=0;orthogonalLoop=1;jettySize=auto;html=1;exitX=0;exitY=1;exitDx=0;exitDy=0;entryX=0.35;entryY=0;entryDx=0;entryDy=0;entryPerimeter=0;" edge="1" parent="1" source="KXRoxeVGN757AeJ8SQAW-32" target="KXRoxeVGN757AeJ8SQAW-9">
          <mxGeometry relative="1" as="geometry" />
        </mxCell>
        <mxCell id="KXRoxeVGN757AeJ8SQAW-52" style="edgeStyle=orthogonalEdgeStyle;rounded=0;orthogonalLoop=1;jettySize=auto;html=1;entryX=0;entryY=0.5;entryDx=0;entryDy=0;entryPerimeter=0;" edge="1" parent="1" source="KXRoxeVGN757AeJ8SQAW-1" target="KXRoxeVGN757AeJ8SQAW-2">
          <mxGeometry relative="1" as="geometry" />
        </mxCell>
        <mxCell id="KXRoxeVGN757AeJ8SQAW-53" style="edgeStyle=orthogonalEdgeStyle;rounded=0;orthogonalLoop=1;jettySize=auto;html=1;entryX=0.5;entryY=0;entryDx=0;entryDy=0;entryPerimeter=0;" edge="1" parent="1" source="KXRoxeVGN757AeJ8SQAW-1" target="KXRoxeVGN757AeJ8SQAW-3">
          <mxGeometry relative="1" as="geometry" />
        </mxCell>
        <mxCell id="KXRoxeVGN757AeJ8SQAW-54" value="User" style="sketch=0;outlineConnect=0;fontColor=#232F3E;gradientColor=none;strokeColor=#232F3E;fillColor=#ffffff;dashed=0;verticalLabelPosition=bottom;verticalAlign=top;align=center;html=1;fontSize=12;fontStyle=0;aspect=fixed;shape=mxgraph.aws4.resourceIcon;resIcon=mxgraph.aws4.user;" vertex="1" parent="1">
          <mxGeometry x="-90" y="159" width="60" height="60" as="geometry" />
        </mxCell>
        <mxCell id="KXRoxeVGN757AeJ8SQAW-55" style="edgeStyle=orthogonalEdgeStyle;rounded=0;orthogonalLoop=1;jettySize=auto;html=1;entryX=0;entryY=0.5;entryDx=0;entryDy=0;entryPerimeter=0;" edge="1" parent="1" source="KXRoxeVGN757AeJ8SQAW-54" target="KXRoxeVGN757AeJ8SQAW-1">
          <mxGeometry relative="1" as="geometry" />
        </mxCell>
      </root>
    </mxGraphModel>
  </diagram>
</mxfile>
